nColumns=19
nRows=97
DataType=double
version=3
OpenSimVersion=4.1
endheader
time	ground_force_calcn_r_vx	ground_force_calcn_r_vy	ground_force_calcn_r_vz	ground_force_calcn_r_px	ground_force_calcn_r_py	ground_force_calcn_r_pz	ground_force_calcn_r_mx	ground_force_calcn_r_my	ground_force_calcn_r_mz	ground_force_calcn_l_vx	ground_force_calcn_l_vy	ground_force_calcn_l_vz	ground_force_calcn_l_px	ground_force_calcn_l_py	ground_force_calcn_l_pz	ground_force_calcn_l_mx	ground_force_calcn_l_my	ground_force_calcn_l_mz
0.08	0	0	0	0	0	0	0	0	0	-9.94239	1310.69	140.895	1.02649	0	-0.322101	0.122251	-16.1162	-1.73244
0.09	0	0	0	0	0	0	0	0	0	-92.3691	1484.47	68.3853	0.983607	0	-0.331249	-0.0788353	1.26697	0.0583655
0.1	0	0	0	0	0	0	0	0	0	-147.555	1627.32	-4.58307	0.945232	0	-0.335664	-1.30873	14.4334	-0.0406491
0.11	0	0	0	0	0	0	0	0	0	-143.254	1728.71	-47.043	0.909169	0	-0.335714	-1.75952	21.233	-0.577809
0.12	0	0	0	0	0	0	0	0	0	-100.909	1806.15	-56.9672	0.872807	0	-0.334754	-1.21011	21.6594	-0.683154
0.13	0	0	0	0	0	0	0	0	0	-46.8083	1830.1	-50.9809	0.837228	0	-0.334537	-0.445924	17.4347	-0.485675
0.14	0	0	0	0	0	0	0	0	0	7.31513	1781.09	-45.0698	0.802857	0	-0.334824	0.0463732	11.2909	-0.285714
0.15	0	0	0	0	0	0	0	0	0	59.9064	1667.1	-45.2182	0.769902	0	-0.334337	0.207847	5.78404	-0.156886
0.16	0	0	0	0	0	0	0	0	0	111.078	1494.51	-50.6931	0.737708	0	-0.332771	0.179964	2.42135	-0.0821313
0.17	0	0	0	0	0	0	0	0	0	156.361	1261.64	-57.7812	0.704232	0	-0.330759	0.176421	1.42349	-0.0651939
0.18	0	0	0	0	0	0	0	0	0	183.203	973.799	-61.2792	0.665845	0	-0.328725	0.378275	2.01069	-0.126528
0.19	0	0	0	0	0	0	0	0	0	180.639	662.088	-58.2344	0.619342	0	-0.32688	0.813794	2.98277	-0.262351
0.2	0	0	0	0	0	0	0	0	0	142.94	384.028	-49.1366	0.570159	0	-0.325137	1.25295	3.36622	-0.43071
0.21	0	0	0	0	0	0	0	0	0	86.0808	186.272	-35.619	0.536796	0	-0.322295	1.32862	2.87502	-0.549762
0.22	0	0	0	0	0	0	0	0	0	38.1385	75.8102	-20.8969	0.57345	0	-0.313148	0.918307	1.82537	-0.503159
0.23	0	0	0	0	0	0	0	0	0	11.8386	27.301	-9.43992	0.795043	0	-0.288051	0.273522	0.630771	-0.218103
0.24	0	0	0	0	0	0	0	0	0	0	0	0	0	0	0	0	0	0
0.25	0	0	0	0	0	0	0	0	0	0	0	0	0	0	0	0	0	0
0.26	0	0	0	0	0	0	0	0	0	0	0	0	0	0	0	0	0	0
0.27	0	0	0	0	0	0	0	0	0	0	0	0	0	0	0	0	0	0
0.28	0	0	0	0	0	0	0	0	0	0	0	0	0	0	0	0	0	0
0.29	0	0	0	0	0	0	0	0	0	0	0	0	0	0	0	0	0	0
0.3	0	0	0	0	0	0	0	0	0	0	0	0	0	0	0	0	0	0
0.31	0	0	0	0	0	0	0	0	0	0	0	0	0	0	0	0	0	0
0.32	0	0	0	0	0	0	0	0	0	0	0	0	0	0	0	0	0	0
0.33	-8.81207	18.8088	-6.45677	1.13363	0	-0.335485	-0.907034	1.93601	-0.664601	0	0	0	0	0	0	0	0	0
0.34	-31.0577	74.3236	-15.0075	1.14709	0	-0.346914	-1.57144	3.76058	-0.759341	0	0	0	0	0	0	0	0	0
0.35	-83.9738	224.32	-25.2927	1.13113	0	-0.34707	-1.91032	5.10305	-0.575384	0	0	0	0	0	0	0	0	0
0.36	-142.104	488.01	-29.4658	1.11175	0	-0.346912	-1.55293	5.33305	-0.322007	0	0	0	0	0	0	0	0	0
0.37	-152.956	812.49	-19.3121	1.08288	0	-0.349419	-0.723817	3.84486	-0.0913888	0	0	0	0	0	0	0	0	0
0.38	-149.932	1124.94	6.04974	1.0478	0	-0.354197	-0.0971789	0.729133	0.00392115	0	0	0	0	0	0	0	0	0
0.39	-173.984	1352.63	38.0607	1.01275	0	-0.358822	0.372404	-2.89524	-0.0814672	0	0	0	0	0	0	0	0	0
0.4	-187.025	1480.46	62.7266	0.976346	0	-0.361937	0.726944	-5.75438	-0.243811	0	0	0	0	0	0	0	0	0
0.41	-171.256	1555.34	71.2981	0.936635	0	-0.363418	0.769116	-6.9851	-0.320202	0	0	0	0	0	0	0	0	0
0.42	-131.504	1606.04	66.448	0.894416	0	-0.363162	0.522236	-6.37796	-0.263882	0	0	0	0	0	0	0	0	0
0.43	-67.2616	1623.67	55.88	0.851391	0	-0.362011	0.18249	-4.40525	-0.15161	0	0	0	0	0	0	0	0	0
0.44	13.8166	1593.54	46.854	0.807309	0	-0.360958	-0.0169192	-1.95138	-0.0573756	0	0	0	0	0	0	0	0	0
0.45	99.2833	1509.08	43.6693	0.761784	0	-0.360089	0.00714747	0.10864	0.00314379	0	0	0	0	0	0	0	0	0
0.46	179.41	1368.94	45.3181	0.715194	0	-0.359661	0.167702	1.27961	0.0423608	0	0	0	0	0	0	0	0	0
0.47	237.407	1176.67	48.5013	0.668454	0	-0.359819	0.316693	1.56964	0.064699	0	0	0	0	0	0	0	0	0
0.48	260.812	943.342	50.9105	0.624587	0	-0.359777	0.372841	1.34854	0.0727785	0	0	0	0	0	0	0	0	0
0.49	245.31	688.497	50.3053	0.585971	0	-0.359125	0.378553	1.06246	0.0776292	0	0	0	0	0	0	0	0	0
0.5	196.28	445.154	44.9459	0.551955	0	-0.357787	0.434097	0.98451	0.0994032	0	0	0	0	0	0	0	0	0
0.51	131.504	249.369	35.2316	0.522626	0	-0.354121	0.590746	1.12022	0.158268	0	0	0	0	0	0	0	0	0
0.52	71.0866	117.743	23.2535	0.497909	0	-0.345994	0.784168	1.29884	0.256513	0	0	0	0	0	0	0	0	0
0.53	28.729	45.2948	12.0655	0.483957	0	-0.332008	0.866844	1.36669	0.364054	0	0	0	0	0	0	0	0	0
0.54	7.86214	14.5396	4.68594	0.536808	0	-0.296592	0.709351	1.31181	0.422782	0	0	0	0	0	0	0	0	0
0.55	0	0	0	0	0	0	0	0	0	0	0	0	0	0	0	0	0	0
0.56	0	0	0	0	0	0	0	0	0	0	0	0	0	0	0	0	0	0
0.57	0	0	0	0	0	0	0	0	0	0	0	0	0	0	0	0	0	0
0.58	0	0	0	0	0	0	0	0	0	0	0	0	0	0	0	0	0	0
0.59	0	0	0	0	0	0	0	0	0	0	0	0	0	0	0	0	0	0
0.6	0	0	0	0	0	0	0	0	0	0	0	0	0	0	0	0	0	0
0.61	0	0	0	0	0	0	0	0	0	0	0	0	0	0	0	0	0	0
0.62	0	0	0	0	0	0	0	0	0	-16.2271	32.2712	-0.519066	1.1586	0	-0.44276	-0.599498	1.19223	-0.0191765
0.63	0	0	0	0	0	0	0	0	0	-57.1206	128.22	6.02263	1.11776	0	-0.435023	-0.311794	0.699892	0.0328746
0.64	0	0	0	0	0	0	0	0	0	-130.197	365.881	22.4886	1.10517	0	-0.425478	0.0151637	-0.0426131	-0.00261918
0.65	0	0	0	0	0	0	0	0	0	-177.678	740.667	42.9699	1.09001	0	-0.414179	0.138224	-0.576201	-0.0334284
0.66	0	0	0	0	0	0	0	0	0	-172.954	1119.57	50.6285	1.06581	0	-0.407639	0.0667603	-0.432153	-0.0195426
0.67	0	0	0	0	0	0	0	0	0	-186.373	1372.37	40.8526	1.03702	0	-0.406735	-0.0455615	0.335495	0.00998701
0.68	0	0	0	0	0	0	0	0	0	-209.561	1506.23	30.9352	1.0028	0	-0.406396	-0.154179	1.10817	0.0227597
0.69	0	0	0	0	0	0	0	0	0	-199.885	1599.49	33.1884	0.962605	0	-0.406106	-0.153418	1.22766	0.0254732
0.7	0	0	0	0	0	0	0	0	0	-153.914	1675.64	44.6233	0.919168	0	-0.406751	-0.0402955	0.438694	0.0116827
0.71	0	0	0	0	0	0	0	0	0	-83.1779	1713.57	56.6118	0.875217	0	-0.407574	0.0460115	-0.947895	-0.0313159
0.72	0	0	0	0	0	0	0	0	0	2.59898	1700.03	61.4009	0.831309	0	-0.407997	-0.00338824	-2.21629	-0.0800472
0.73	0	0	0	0	0	0	0	0	0	88.9548	1633.07	55.5795	0.787216	0	-0.407362	-0.143541	-2.63519	-0.0896855
0.74	0	0	0	0	0	0	0	0	0	166.064	1511.2	40.3072	0.743408	0	-0.405967	-0.201172	-1.83069	-0.0488288
0.75	0	0	0	0	0	0	0	0	0	225.999	1334.59	20.5763	0.699589	0	-0.403567	0.00770173	0.045481	0.000701211
0.76	0	0	0	0	0	0	0	0	0	257.17	1106.39	0.363367	0.657143	0	-0.400424	0.556131	2.39256	0.000785782
0.77	0	0	0	0	0	0	0	0	0	254.603	840.115	-17.5057	0.617432	0	-0.397502	1.33787	4.41456	-0.0919875
0.78	0	0	0	0	0	0	0	0	0	216.117	568.069	-28.4026	0.581946	0	-0.394155	2.07556	5.45567	-0.272775
0.79	0	0	0	0	0	0	0	0	0	150.632	332.417	-29.8625	0.552789	0	-0.388447	2.41087	5.32035	-0.477949
0.8	0	0	0	0	0	0	0	0	0	82.1868	162.638	-24.4845	0.526057	0	-0.381536	2.16037	4.27511	-0.6436
0.81	0	0	0	0	0	0	0	0	0	32.1763	63.8631	-15.7503	0.51147	0	-0.374621	1.41658	2.81162	-0.693417
0.82	0	0	0	0	0	0	0	0	0	7.73828	21.6062	-6.63488	0.632737	0	-0.33649	0.507227	1.41624	-0.434902
0.83	0	0	0	0	0	0	0	0	0	0	0	0	0	0	0	0	0	0
0.84	0	0	0	0	0	0	0	0	0	0	0	0	0	0	0	0	0	0
0.85	0	0	0	0	0	0	0	0	0	0	0	0	0	0	0	0	0	0
0.86	0	0	0	0	0	0	0	0	0	0	0	0	0	0	0	0	0	0
0.87	0	0	0	0	0	0	0	0	0	0	0	0	0	0	0	0	0	0
0.88	0	0	0	0	0	0	0	0	0	0	0	0	0	0	0	0	0	0
0.89	0	0	0	0	0	0	0	0	0	0	0	0	0	0	0	0	0	0
0.9	0	0	0	0	0	0	0	0	0	0	0	0	0	0	0	0	0	0
0.91	0	0	0	0	0	0	0	0	0	0	0	0	0	0	0	0	0	0
0.92	-7.82504	25.3323	-8.83027	1.11114	0	-0.305829	-0.676493	2.19003	-0.763397	0	0	0	0	0	0	0	0	0
0.93	-30.6791	102.525	-20.3094	1.12447	0	-0.308107	-0.99228	3.31605	-0.656884	0	0	0	0	0	0	0	0	0
0.94	-82.0237	318.775	-34.2323	1.12472	0	-0.308022	-0.91558	3.55829	-0.382114	0	0	0	0	0	0	0	0	0
0.95	-139.504	696.685	-40.4036	1.10961	0	-0.310355	-0.476618	2.38024	-0.13804	0	0	0	0	0	0	0	0	0
0.96	-172.082	1093.07	-29.1144	1.08646	0	-0.31269	0.0261075	-0.165836	0.00441712	0	0	0	0	0	0	0	0	0
0.97	-207.123	1334.07	-8.45064	1.05953	0	-0.314624	0.497448	-3.20403	0.0202959	0	0	0	0	0	0	0	0	0
0.98	-242.19	1433.54	2.45183	1.02832	0	-0.316694	0.930653	-5.5086	-0.0094215	0	0	0	0	0	0	0	0	0
0.99	-241.206	1518.3	-1.20192	0.992351	0	-0.317339	0.993878	-6.2561	0.00495245	0	0	0	0	0	0	0	0	0
1	-202.604	1626.38	-11.3526	0.95558	0	-0.315557	0.651637	-5.23092	0.0365136	0	0	0	0	0	0	0	0	0
1.01	-141.528	1706.89	-23.6702	0.919834	0	-0.31372	0.235965	-2.84585	0.0394646	0	0	0	0	0	0	0	0	0
1.02	-76.561	1722.06	-34.7521	0.885139	0	-0.312569	0.000930222	-0.0209231	0.00042224	0	0	0	0	0	0	0	0	0
1.03	-19.316	1674.35	-38.4229	0.851624	0	-0.31096	-0.0259119	2.24609	-0.0515432	0	0	0	0	0	0	0	0	0
1.04	32.7485	1575.05	-33.7344	0.818586	0	-0.309338	0.0687988	3.3089	-0.0708701	0	0	0	0	0	0	0	0	0
